<svg xmlns="http://www.w3.org/2000/svg" xmlns:xlink="http://www.w3.org/1999/xlink" viewBox="0 0 2360.54 2228.66"><defs><clipPath id="clip-path"><rect width="2360.54" height="2228.66" fill="none"/></clipPath></defs><title>Asset 1</title><g id="Layer_2" data-name="Layer 2" fill-opacity="0.25"><g id="Layer_1-2" data-name="Layer 1"><g clip-path="url(#clip-path)"><path d="M2062.56,702c29.83,21.56,60.17,40.69,87,63.85,19.9,17.16,23.87,38.12,13.65,67.18-65.11,185.17-127,371.49-190.21,557.31-26.32,77.32-53.47,154.36-82.38,237.69-7.59-15.65-13.06-25.06-16.89-35.09-30.88-81-62.87-161.56-91.11-243.45-6.86-19.9-7-46.22-.17-66.1,96-277.76,194-554.78,290.68-832.31,18.51-53.15,53.32-90.17,101.55-116.24,16.16-8.73,32.94-16.3,52.24-25.77H1915.7c12.2,14.14,27,21.2,41.26,29.32,55.35,31.57,67.53,58.41,50.13,109.81Q1899,767.59,1790.79,1086.93c-16.35,48.25-32.85,96.45-51.63,151.57-6.64-15.81-10.16-23.75-13.33-31.83-55.85-142-112.27-283.75-166.67-426.29-6.72-17.6-8.35-41.21-2.6-58.86,62.45-191.65,125.79-383,191.88-573.44,9.44-27.19,31.59-52.39,53.61-72.1s51-31.12,75.42-45.27H1579.7c29.64,22.31,59.9,45,90,67.8,17.47,13.23,18.34,29.23,11.27,49.32-37.08,105.48-73.15,211.33-109.47,317.08-19.61,57.09-39,114.24-60.4,176.9L1259.83,0l-13.37.47-203.82,558c-7.83-15.68-13.27-25.12-17.41-35.1Q945.84,331.76,866.85,139.93c-12.48-30.35-.94-56,18.53-78.93,9-10.62,19.79-19.75,31.31-31.07H526c13.93,12,30.29,16.48,45,24.12,37.51,19.46,79.6,32.9,96.37,79C748.14,354.65,828,576.67,912,797.07c18.14,47.58,19.71,86.84-1.43,133.08-34.94,76.43-63.69,155.69-97,238.63-6.46-13-10.93-20.47-14.06-28.47Q691,862.85,582.69,585.3c-8.38-21.46-15.75-43.43-25.66-64.17-28.51-59.63-36.14-116,28.81-165.24H212.47c1.58,4.51,1.78,7.68,3,8.17,8.13,3.2,16.71,5.28,24.73,8.7,50.15,21.43,94.48,45.83,115.87,103.43Q517.69,911.33,685,1344.33c22.42,57.7,29.13,108.13-.68,164.39-22.46,42.39-37.15,88.91-57.41,138.78-5.45-11.19-8.17-15.88-10.11-20.87Q477.17,1266,337.46,905.33c-22.87-58.77-41.58-115.84,26.46-163.15H0c12.32,12.33,26.45,17.07,39.83,23.4,35,16.55,69,33.56,84.58,73.51q179.83,461.84,360.52,923.34c29.2,74.69,58.8,149.21,90.87,230.52l172.34-442.39,282.19,678.09,202.85-580.47,231.46,555.27,210.26-581.69L1821,1959.71c5.86-14.49,9.41-22.29,12.21-30.35,124.73-359.55,248.84-719.32,375-1078.35,10.89-31,31.12-61.9,55-84.27,28.77-26.91,66.13-44.64,97.25-64.72Zm-874,859.62c-32.08,99-66.09,197.47-99.68,296-1.33,3.9-4.59,7.15-10.07,15.39-68.85-180.34-133.7-356.34-203.88-530.2-20.43-50.63-21.76-93.13.7-142.61,34.79-76.66,63.22-156.21,97.15-241.58,41.07,107.48,79.15,207.83,117.76,308,32,82.89,65.19,165.29,96.19,248.52,5.2,14,6.36,32.5,1.83,46.48m103.64-304.44C1224,1076,1157.65,897.48,1089.32,719.72c-12.62-32.84-13.48-61.4-.84-94.5,35.15-92.08,67-185.41,100.31-278.21,1.38-3.86,3.83-7.33,9.08-17.18,27.37,76.65,52.66,147.86,78.22,219,41.53,115.52,83.89,230.75,124.14,346.71,5.56,16,5.73,37,.51,53.17-31.64,98-65.51,195.19-98.86,292.59-1.65,4.81-5.36,8.91-9.72,15.94m342.65,299.11c-32.89,101.09-67.8,201.52-104.15,308.33-6.49-11.84-11.69-19.11-14.73-27.2q-86.85-231.06-172.8-462.46c-3.78-10.22-4.44-23.93-1-34.13,33-97.65,67.17-194.92,101.22-292.21,1.37-3.92,5-7.07,11-15.31,21,50.51,42.09,97.3,60.15,145.23q61.5,163.21,119.93,327.56c5.33,15.05,5.31,35,.35,50.2" fill="#fff"/></g></g></g></svg>